<mxfile host="65bd71144e">
    <diagram id="6gf_0-IHQvZOiRV-BDkc" name="Page-1">
        <mxGraphModel dx="668" dy="1599" grid="1" gridSize="10" guides="1" tooltips="1" connect="1" arrows="1" fold="1" page="1" pageScale="1" pageWidth="850" pageHeight="1100" math="0" shadow="0">
            <root>
                <mxCell id="0"/>
                <mxCell id="1" parent="0"/>
                <mxCell id="13" style="edgeStyle=none;html=1;entryX=0.5;entryY=0;entryDx=0;entryDy=0;fontSize=12;" edge="1" parent="1" source="2" target="4">
                    <mxGeometry relative="1" as="geometry">
                        <Array as="points">
                            <mxPoint x="360" y="320"/>
                            <mxPoint x="280" y="320"/>
                        </Array>
                    </mxGeometry>
                </mxCell>
                <mxCell id="2" value="- this.saveItems(Product)" style="whiteSpace=wrap;html=1;aspect=fixed;" vertex="1" parent="1">
                    <mxGeometry x="280" y="120" width="160" height="160" as="geometry"/>
                </mxCell>
                <mxCell id="4" value="- products = getState;&lt;br&gt;- saveItems(product) {&lt;br&gt;products.push(product)&lt;br&gt;http.put(products)&lt;br&gt;}" style="whiteSpace=wrap;html=1;aspect=fixed;" vertex="1" parent="1">
                    <mxGeometry x="200" y="360" width="160" height="160" as="geometry"/>
                </mxCell>
                <mxCell id="5" value="Store" style="text;html=1;align=center;verticalAlign=middle;resizable=0;points=[];autosize=1;strokeColor=none;fillColor=none;" vertex="1" parent="1">
                    <mxGeometry x="95" y="90" width="50" height="30" as="geometry"/>
                </mxCell>
                <mxCell id="6" value="Effects" style="text;html=1;align=center;verticalAlign=middle;resizable=0;points=[];autosize=1;strokeColor=none;fillColor=none;" vertex="1" parent="1">
                    <mxGeometry x="315" y="90" width="60" height="30" as="geometry"/>
                </mxCell>
                <mxCell id="10" value="" style="edgeStyle=none;html=1;fontSize=12;" edge="1" parent="1" source="7" target="2">
                    <mxGeometry relative="1" as="geometry"/>
                </mxCell>
                <mxCell id="12" value="" style="edgeStyle=none;html=1;fontSize=12;entryX=0;entryY=0.5;entryDx=0;entryDy=0;startArrow=none;" edge="1" parent="1" source="16" target="4">
                    <mxGeometry relative="1" as="geometry">
                        <mxPoint x="110" y="360" as="targetPoint"/>
                        <Array as="points">
                            <mxPoint x="120" y="440"/>
                        </Array>
                    </mxGeometry>
                </mxCell>
                <mxCell id="22" style="edgeStyle=none;html=1;exitX=0.25;exitY=0;exitDx=0;exitDy=0;entryX=0.25;entryY=1;entryDx=0;entryDy=0;fontSize=12;" edge="1" parent="1" source="7" target="20">
                    <mxGeometry relative="1" as="geometry"/>
                </mxCell>
                <mxCell id="7" value="&lt;font style=&quot;&quot;&gt;&lt;font style=&quot;font-size: 12px;&quot;&gt;- intialState = get Products&lt;br&gt;&lt;br&gt;Reducer &lt;br&gt;- newItem = action.payload&lt;br&gt;- state.add(newItem)&lt;br&gt;&lt;/font&gt;after go to Effects = &amp;gt;&lt;br&gt;&lt;/font&gt;" style="whiteSpace=wrap;html=1;aspect=fixed;" vertex="1" parent="1">
                    <mxGeometry x="40" y="120" width="160" height="160" as="geometry"/>
                </mxCell>
                <mxCell id="8" value="Service" style="text;html=1;align=center;verticalAlign=middle;resizable=0;points=[];autosize=1;strokeColor=none;fillColor=none;" vertex="1" parent="1">
                    <mxGeometry x="200" y="330" width="60" height="30" as="geometry"/>
                </mxCell>
                <mxCell id="15" value="send product" style="text;html=1;align=center;verticalAlign=middle;resizable=0;points=[];autosize=1;strokeColor=none;fillColor=none;fontSize=12;" vertex="1" parent="1">
                    <mxGeometry x="270" y="295" width="90" height="30" as="geometry"/>
                </mxCell>
                <mxCell id="16" value="send products to update" style="text;html=1;align=center;verticalAlign=middle;resizable=0;points=[];autosize=1;strokeColor=none;fillColor=none;fontSize=12;" vertex="1" parent="1">
                    <mxGeometry x="45" y="280" width="150" height="30" as="geometry"/>
                </mxCell>
                <mxCell id="21" style="edgeStyle=none;html=1;exitX=0.75;exitY=1;exitDx=0;exitDy=0;entryX=0.75;entryY=0;entryDx=0;entryDy=0;fontSize=12;" edge="1" parent="1" source="20" target="7">
                    <mxGeometry relative="1" as="geometry"/>
                </mxCell>
                <mxCell id="20" value="Component&lt;br&gt;store.subscribe() onchange?&lt;br&gt;store.dispatch(newItem)" style="whiteSpace=wrap;html=1;aspect=fixed;" vertex="1" parent="1">
                    <mxGeometry x="40" y="-80" width="160" height="160" as="geometry"/>
                </mxCell>
                <mxCell id="27" value="" style="edgeStyle=none;html=1;fontSize=12;" edge="1" parent="1" source="23" target="24">
                    <mxGeometry relative="1" as="geometry"/>
                </mxCell>
                <mxCell id="23" value="savedState" style="whiteSpace=wrap;html=1;aspect=fixed;fontSize=12;" vertex="1" parent="1">
                    <mxGeometry x="340" y="-850" width="80" height="80" as="geometry"/>
                </mxCell>
                <mxCell id="34" value="" style="edgeStyle=none;html=1;fontSize=12;" edge="1" parent="1" source="24" target="25">
                    <mxGeometry relative="1" as="geometry"/>
                </mxCell>
                <mxCell id="37" value="" style="edgeStyle=none;html=1;fontSize=12;" edge="1" parent="1" source="24" target="26">
                    <mxGeometry relative="1" as="geometry"/>
                </mxCell>
                <mxCell id="24" value="State = db&lt;br&gt;updateState" style="whiteSpace=wrap;html=1;aspect=fixed;fontSize=12;" vertex="1" parent="1">
                    <mxGeometry x="460" y="-850" width="80" height="80" as="geometry"/>
                </mxCell>
                <mxCell id="38" style="edgeStyle=none;html=1;entryX=0.5;entryY=1;entryDx=0;entryDy=0;fontSize=12;" edge="1" parent="1" source="25" target="23">
                    <mxGeometry relative="1" as="geometry">
                        <Array as="points">
                            <mxPoint x="380" y="-690"/>
                        </Array>
                    </mxGeometry>
                </mxCell>
                <mxCell id="25" value="http.put()" style="whiteSpace=wrap;html=1;aspect=fixed;fontSize=12;" vertex="1" parent="1">
                    <mxGeometry x="460" y="-730" width="80" height="80" as="geometry"/>
                </mxCell>
                <mxCell id="26" value="Load" style="whiteSpace=wrap;html=1;aspect=fixed;fontSize=12;" vertex="1" parent="1">
                    <mxGeometry x="620" y="-850" width="80" height="80" as="geometry"/>
                </mxCell>
                <mxCell id="29" value="&lt;span style=&quot;&quot;&gt;database&lt;/span&gt;" style="text;html=1;align=center;verticalAlign=middle;resizable=0;points=[];autosize=1;strokeColor=none;fillColor=none;fontSize=12;" vertex="1" parent="1">
                    <mxGeometry x="345" y="-880" width="70" height="30" as="geometry"/>
                </mxCell>
                <mxCell id="30" value="reducer" style="text;html=1;align=center;verticalAlign=middle;resizable=0;points=[];autosize=1;strokeColor=none;fillColor=none;fontSize=12;" vertex="1" parent="1">
                    <mxGeometry x="470" y="-880" width="60" height="30" as="geometry"/>
                </mxCell>
                <mxCell id="35" value="effects" style="text;html=1;align=center;verticalAlign=middle;resizable=0;points=[];autosize=1;strokeColor=none;fillColor=none;fontSize=12;" vertex="1" parent="1">
                    <mxGeometry x="445" y="-760" width="60" height="30" as="geometry"/>
                </mxCell>
                <mxCell id="36" value="Component" style="text;html=1;align=center;verticalAlign=middle;resizable=0;points=[];autosize=1;strokeColor=none;fillColor=none;fontSize=12;" vertex="1" parent="1">
                    <mxGeometry x="615" y="-880" width="90" height="30" as="geometry"/>
                </mxCell>
                <mxCell id="39" value="update" style="text;html=1;align=center;verticalAlign=middle;resizable=0;points=[];autosize=1;strokeColor=none;fillColor=none;fontSize=12;" vertex="1" parent="1">
                    <mxGeometry x="390" y="-720" width="60" height="30" as="geometry"/>
                </mxCell>
                <mxCell id="40" value="send" style="text;html=1;align=center;verticalAlign=middle;resizable=0;points=[];autosize=1;strokeColor=none;fillColor=none;fontSize=12;" vertex="1" parent="1">
                    <mxGeometry x="555" y="-840" width="50" height="30" as="geometry"/>
                </mxCell>
                <mxCell id="42" value="get" style="text;html=1;align=center;verticalAlign=middle;resizable=0;points=[];autosize=1;strokeColor=none;fillColor=none;fontSize=12;" vertex="1" parent="1">
                    <mxGeometry x="420" y="-840" width="40" height="30" as="geometry"/>
                </mxCell>
                <mxCell id="44" value="&lt;font style=&quot;font-size: 18px;&quot;&gt;Project Structure&lt;/font&gt;" style="text;html=1;align=center;verticalAlign=middle;resizable=0;points=[];autosize=1;strokeColor=none;fillColor=none;fontSize=12;" vertex="1" parent="1">
                    <mxGeometry x="360" y="-930" width="160" height="40" as="geometry"/>
                </mxCell>
                <mxCell id="71" style="edgeStyle=none;html=1;exitX=1;exitY=0.5;exitDx=0;exitDy=0;entryX=0;entryY=0.5;entryDx=0;entryDy=0;fontSize=9;" edge="1" parent="1" source="47" target="66">
                    <mxGeometry relative="1" as="geometry"/>
                </mxCell>
                <mxCell id="47" value="First Load&lt;br&gt;&lt;font style=&quot;font-size: 9px;&quot;&gt;dispatch(initState)&lt;/font&gt;" style="whiteSpace=wrap;html=1;aspect=fixed;fontSize=12;" vertex="1" parent="1">
                    <mxGeometry x="40" y="-850" width="80" height="80" as="geometry"/>
                </mxCell>
                <mxCell id="49" value="Component" style="text;html=1;align=center;verticalAlign=middle;resizable=0;points=[];autosize=1;strokeColor=none;fillColor=none;fontSize=12;" vertex="1" parent="1">
                    <mxGeometry x="25" y="-880" width="90" height="30" as="geometry"/>
                </mxCell>
                <mxCell id="50" value="" style="edgeStyle=none;html=1;fontSize=12;" edge="1" source="51" target="54" parent="1">
                    <mxGeometry relative="1" as="geometry"/>
                </mxCell>
                <mxCell id="51" value="savedState" style="whiteSpace=wrap;html=1;aspect=fixed;fontSize=12;" vertex="1" parent="1">
                    <mxGeometry x="160" y="-480" width="80" height="80" as="geometry"/>
                </mxCell>
                <mxCell id="52" value="" style="edgeStyle=none;html=1;fontSize=12;" edge="1" source="54" target="56" parent="1">
                    <mxGeometry relative="1" as="geometry"/>
                </mxCell>
                <mxCell id="53" value="" style="edgeStyle=none;html=1;fontSize=12;" edge="1" source="54" target="57" parent="1">
                    <mxGeometry relative="1" as="geometry"/>
                </mxCell>
                <mxCell id="54" value="State = db&lt;br&gt;updateState" style="whiteSpace=wrap;html=1;aspect=fixed;fontSize=12;" vertex="1" parent="1">
                    <mxGeometry x="280" y="-480" width="80" height="80" as="geometry"/>
                </mxCell>
                <mxCell id="55" style="edgeStyle=none;html=1;entryX=0.5;entryY=1;entryDx=0;entryDy=0;fontSize=12;" edge="1" source="56" target="51" parent="1">
                    <mxGeometry relative="1" as="geometry">
                        <Array as="points">
                            <mxPoint x="200" y="-320"/>
                        </Array>
                    </mxGeometry>
                </mxCell>
                <mxCell id="56" value="http.put()" style="whiteSpace=wrap;html=1;aspect=fixed;fontSize=12;" vertex="1" parent="1">
                    <mxGeometry x="280" y="-360" width="80" height="80" as="geometry"/>
                </mxCell>
                <mxCell id="57" value="Load" style="whiteSpace=wrap;html=1;aspect=fixed;fontSize=12;" vertex="1" parent="1">
                    <mxGeometry x="440" y="-480" width="80" height="80" as="geometry"/>
                </mxCell>
                <mxCell id="58" value="&lt;span style=&quot;&quot;&gt;database&lt;/span&gt;" style="text;html=1;align=center;verticalAlign=middle;resizable=0;points=[];autosize=1;strokeColor=none;fillColor=none;fontSize=12;" vertex="1" parent="1">
                    <mxGeometry x="165" y="-510" width="70" height="30" as="geometry"/>
                </mxCell>
                <mxCell id="59" value="reducer" style="text;html=1;align=center;verticalAlign=middle;resizable=0;points=[];autosize=1;strokeColor=none;fillColor=none;fontSize=12;" vertex="1" parent="1">
                    <mxGeometry x="290" y="-510" width="60" height="30" as="geometry"/>
                </mxCell>
                <mxCell id="60" value="effects" style="text;html=1;align=center;verticalAlign=middle;resizable=0;points=[];autosize=1;strokeColor=none;fillColor=none;fontSize=12;" vertex="1" parent="1">
                    <mxGeometry x="265" y="-390" width="60" height="30" as="geometry"/>
                </mxCell>
                <mxCell id="61" value="Component" style="text;html=1;align=center;verticalAlign=middle;resizable=0;points=[];autosize=1;strokeColor=none;fillColor=none;fontSize=12;" vertex="1" parent="1">
                    <mxGeometry x="435" y="-510" width="90" height="30" as="geometry"/>
                </mxCell>
                <mxCell id="62" value="update" style="text;html=1;align=center;verticalAlign=middle;resizable=0;points=[];autosize=1;strokeColor=none;fillColor=none;fontSize=12;" vertex="1" parent="1">
                    <mxGeometry x="210" y="-350" width="60" height="30" as="geometry"/>
                </mxCell>
                <mxCell id="63" value="send" style="text;html=1;align=center;verticalAlign=middle;resizable=0;points=[];autosize=1;strokeColor=none;fillColor=none;fontSize=12;" vertex="1" parent="1">
                    <mxGeometry x="375" y="-470" width="50" height="30" as="geometry"/>
                </mxCell>
                <mxCell id="64" value="get" style="text;html=1;align=center;verticalAlign=middle;resizable=0;points=[];autosize=1;strokeColor=none;fillColor=none;fontSize=12;" vertex="1" parent="1">
                    <mxGeometry x="240" y="-470" width="40" height="30" as="geometry"/>
                </mxCell>
                <mxCell id="65" value="&lt;font style=&quot;font-size: 18px;&quot;&gt;When dispatch&lt;/font&gt;" style="text;html=1;align=center;verticalAlign=middle;resizable=0;points=[];autosize=1;strokeColor=none;fillColor=none;fontSize=12;" vertex="1" parent="1">
                    <mxGeometry x="250" y="-560" width="140" height="40" as="geometry"/>
                </mxCell>
                <mxCell id="74" style="edgeStyle=none;html=1;exitX=0.5;exitY=1;exitDx=0;exitDy=0;fontSize=9;" edge="1" parent="1" source="66" target="72">
                    <mxGeometry relative="1" as="geometry"/>
                </mxCell>
                <mxCell id="66" value="&lt;font style=&quot;font-size: 9px;&quot;&gt;run(initStateAction)&lt;/font&gt;" style="whiteSpace=wrap;html=1;aspect=fixed;fontSize=12;" vertex="1" parent="1">
                    <mxGeometry x="145" y="-850" width="80" height="80" as="geometry"/>
                </mxCell>
                <mxCell id="69" value="reducer" style="text;html=1;align=center;verticalAlign=middle;resizable=0;points=[];autosize=1;strokeColor=none;fillColor=none;fontSize=12;" vertex="1" parent="1">
                    <mxGeometry x="140" y="-880" width="60" height="30" as="geometry"/>
                </mxCell>
                <mxCell id="72" value="&lt;font style=&quot;font-size: 9px;&quot;&gt;service(getIetms)&lt;br&gt;initState(items)&lt;br&gt;&lt;/font&gt;" style="whiteSpace=wrap;html=1;aspect=fixed;fontSize=12;" vertex="1" parent="1">
                    <mxGeometry x="145" y="-730" width="80" height="80" as="geometry"/>
                </mxCell>
                <mxCell id="73" value="effects" style="text;html=1;align=center;verticalAlign=middle;resizable=0;points=[];autosize=1;strokeColor=none;fillColor=none;fontSize=12;" vertex="1" parent="1">
                    <mxGeometry x="145" y="-760" width="60" height="30" as="geometry"/>
                </mxCell>
                <mxCell id="76" style="edgeStyle=none;html=1;fontSize=9;" edge="1" parent="1" source="75" target="23">
                    <mxGeometry relative="1" as="geometry"/>
                </mxCell>
                <mxCell id="75" value="First Load&lt;br&gt;&lt;font style=&quot;font-size: 9px;&quot;&gt;dispatch(initState)&lt;/font&gt;" style="whiteSpace=wrap;html=1;aspect=fixed;fontSize=12;" vertex="1" parent="1">
                    <mxGeometry x="240" y="-850" width="80" height="80" as="geometry"/>
                </mxCell>
            </root>
        </mxGraphModel>
    </diagram>
</mxfile>
